<svg width="26" height="26" viewBox="0 0 26 26" fill="none" xmlns="http://www.w3.org/2000/svg">
<mask id="mask0_234_408" style="mask-type:alpha" maskUnits="userSpaceOnUse" x="0" y="0" width="26" height="26">
<rect width="26" height="26" rx="1" fill="#D9D9D9"/>
</mask>
<g mask="url(#mask0_234_408)">
<path d="M15.8935 19.2803C15.5013 19.6717 14.8655 19.6695 14.476 19.2754L13.8746 18.6669C13.4879 18.2757 13.4898 17.6457 13.8787 17.2568L14.9929 16.1426C15.6229 15.5126 15.1767 14.4354 14.2858 14.4354H4.81299C4.2607 14.4354 3.81299 13.9877 3.81299 13.4354V12.5646C3.81299 12.0123 4.2607 11.5646 4.81299 11.5646H14.2858C15.1767 11.5646 15.6229 10.4875 14.9929 9.85751L13.8787 8.74325C13.4898 8.35434 13.4879 7.72435 13.8746 7.33318L14.476 6.7247C14.8655 6.33059 15.5013 6.32839 15.8935 6.7198L21.478 12.2922C21.8695 12.6829 21.8695 13.3172 21.478 13.7079L15.8935 19.2803Z" fill="#F7F7FC"/>
</g>
</svg>
