<svg width="48" height="48" viewBox="0 0 48 48" fill="none" xmlns="http://www.w3.org/2000/svg">
<rect width="48" height="48" rx="12" fill="#421B1B"/>
<mask id="mask0_234_399" style="mask-type:alpha" maskUnits="userSpaceOnUse" x="10" y="10" width="28" height="28">
<rect x="10" y="10" width="28" height="28" fill="#D9D9D9"/>
</mask>
<g mask="url(#mask0_234_399)">
<path d="M25.6923 33.9752C24.7297 34.8382 23.2716 34.8382 22.309 33.9752C20.3451 32.2057 18.7215 30.6793 17.4382 29.396C16.1548 28.1127 15.134 26.9606 14.3757 25.9397C13.6173 24.9189 13.0875 23.9807 12.7861 23.1252C12.4847 22.2696 12.334 21.3946 12.334 20.5002C12.334 18.6724 12.9465 17.146 14.1715 15.921C15.3965 14.696 16.9229 14.0835 18.7507 14.0835C19.7618 14.0835 20.7243 14.2974 21.6382 14.7252C23.0614 15.3914 24.9399 15.3914 26.3632 14.7252C27.277 14.2974 28.2395 14.0835 29.2507 14.0835C31.0784 14.0835 32.6048 14.696 33.8298 15.921C35.0548 17.146 35.6673 18.6724 35.6673 20.5002C35.6673 21.3946 35.5166 22.2696 35.2152 23.1252C34.9138 23.9807 34.384 24.9189 33.6257 25.9397C32.8673 26.9606 31.8465 28.1127 30.5632 29.396C29.2798 30.6793 27.6562 32.2057 25.6923 33.9752Z" fill="#DB1616"/>
</g>
</svg>
